<svg width="286" height="286" viewBox="0 0 286 286" fill="none" xmlns="http://www.w3.org/2000/svg">
<path d="M0 63.7326C0 28.534 28.534 0 63.7326 0H222.267C257.466 0 286 28.534 286 63.7326V222.267C286 257.466 257.466 286 222.267 286H63.7326C28.534 286 0 257.466 0 222.267V63.7326Z" fill="#101313"/>
<path d="M197.899 34L88 88.8153V142.018L197.899 88.8153V34Z" fill="white"/>
<path d="M197.899 143.362L88 198.177V251.38L197.899 198.177V143.362Z" fill="white"/>
<path d="M133.948 141.75H88.2687V198.446L133.948 141.75Z" fill="white"/>
<path d="M152.489 143.093L198.168 143.093L198.168 86.3971L152.489 143.093Z" fill="white"/>
</svg>
