<svg width="286" height="286" viewBox="0 0 286 286" fill="none" xmlns="http://www.w3.org/2000/svg">
<path d="M0 63.7326C0 28.534 28.534 0 63.7326 0H222.267C257.466 0 286 28.534 286 63.7326V222.267C286 257.466 257.466 286 222.267 286H63.7326C28.534 286 0 257.466 0 222.267V63.7326Z" fill="#101313"/>
<path d="M45.9375 128.921H32V73H45.9375V86.9803H59.875V100.961H45.9375V128.921ZM45.9375 142.902V128.921H59.875V142.902H45.9375Z" fill="white"/>
<path d="M87.75 142.902V128.921H73.8125V100.961H87.75V128.921H101.687V100.961H87.75V86.9803H115.625V142.902H87.75Z" fill="white"/>
<path d="M143.5 100.961V86.9803H171.375V100.961H157.437V114.941H129.562V100.961H143.5ZM171.375 128.921H157.437V114.941H171.375V128.921ZM157.437 128.921V142.902H129.562V128.921H157.437Z" fill="white"/>
<path d="M199.25 142.902H185.312V73H199.25V100.961H213.187V114.941H199.25V142.902ZM213.187 100.961V86.9803H227.125V100.961H213.187ZM227.125 142.902H213.187V114.941H227.125V142.902Z" fill="white"/>
<path d="M45.9375 185.039H32V157.079H45.9375V185.039ZM59.875 185.039V157.079H73.8125V185.039H59.875ZM87.75 185.039V157.079H101.687V185.039H87.75ZM59.875 213H45.9375V185.039H59.875V213ZM87.75 213H73.8125V185.039H87.75V213Z" fill="white"/>
<path d="M129.562 213V199.02H115.625V171.059H129.562V199.02H143.5V171.059H129.562V157.079H157.437V213H129.562Z" fill="white"/>
<path d="M185.312 213H171.375V157.079H199.25V171.059H185.312V213Z" fill="white"/>
<path d="M227.125 213V199.02H213.187V171.059H227.125V199.02H241.062V171.059H227.125V157.079H241.062V143.098H255V213H227.125Z" fill="white"/>
</svg>
